<svg width="83" height="65" viewBox="0 0 83 65" fill="none" xmlns="http://www.w3.org/2000/svg">
<g clip-path="url(#clip0)">
<path d="M78 2.5H5C3.34315 2.5 2 3.84315 2 5.5V59.2722C2 60.9291 3.34315 62.2722 5 62.2722H78C79.6569 62.2722 81 60.9291 81 59.2722V5.5C81 3.84315 79.6569 2.5 78 2.5Z" stroke="#1794C1" stroke-width="4"/>
<path d="M27 36.5C29.2091 36.5 31 34.7091 31 32.5C31 30.2909 29.2091 28.5 27 28.5C24.7909 28.5 23 30.2909 23 32.5C23 34.7091 24.7909 36.5 27 36.5Z" fill="#1794C1"/>
<path d="M42 36.5C44.2091 36.5 46 34.7091 46 32.5C46 30.2909 44.2091 28.5 42 28.5C39.7909 28.5 38 30.2909 38 32.5C38 34.7091 39.7909 36.5 42 36.5Z" fill="#1794C1"/>
<path d="M57 36.5C59.2091 36.5 61 34.7091 61 32.5C61 30.2909 59.2091 28.5 57 28.5C54.7909 28.5 53 30.2909 53 32.5C53 34.7091 54.7909 36.5 57 36.5Z" fill="#1794C1"/>
</g>
<defs>
<clipPath id="clip0">
<rect width="83" height="64" fill="white" transform="translate(0 0.5)"/>
</clipPath>
</defs>
</svg>
