<svg width="83" height="65" viewBox="0 0 83 65" fill="none" xmlns="http://www.w3.org/2000/svg">
<g clip-path="url(#clip0)">
<path d="M78 2.5H5C3.34315 2.5 2 3.84315 2 5.5V59.2722C2 60.9291 3.34315 62.2722 5 62.2722H78C79.6569 62.2722 81 60.9291 81 59.2722V5.5C81 3.84315 79.6569 2.5 78 2.5Z" stroke="#1794C1" stroke-width="4"/>
<path d="M36.0521 8.11389C34.9476 8.11389 34.0521 9.00932 34.0521 10.1139C34.0521 11.2185 34.9476 12.1139 36.0521 12.1139V8.11389ZM70.9826 12.1139C72.0872 12.1139 72.9826 11.2185 72.9826 10.1139C72.9826 9.00932 72.0872 8.11389 70.9826 8.11389V12.1139ZM54.047 30.3396C53.0938 29.7816 51.8687 30.102 51.3107 31.0553C50.7527 32.0085 51.0731 33.2337 52.0263 33.7917L54.047 30.3396ZM66.1757 39.7567L67.186 41.4828C67.799 41.124 68.1757 40.467 68.1757 39.7567C68.1757 39.0465 67.799 38.3895 67.186 38.0307L66.1757 39.7567ZM52.0263 45.7218C51.0731 46.2798 50.7527 47.505 51.3107 48.4582C51.8687 49.4115 53.0938 49.7319 54.047 49.1739L52.0263 45.7218ZM48.6508 27.1846C49.0524 26.1556 48.5437 24.9959 47.5147 24.5944C46.4857 24.1928 45.3261 24.7014 44.9245 25.7304L48.6508 27.1846ZM34.6697 52.0084C34.2681 53.0374 34.7767 54.1971 35.8057 54.5987C36.8347 55.0002 37.9944 54.4916 38.396 53.4626L34.6697 52.0084ZM31.2941 33.7917C32.2474 33.2337 32.5678 32.0085 32.0098 31.0553C31.4518 30.102 30.2267 29.7816 29.2734 30.3396L31.2941 33.7917ZM17.1448 39.7567L16.1344 38.0307C15.5215 38.3895 15.1448 39.0465 15.1448 39.7567C15.1448 40.467 15.5215 41.124 16.1344 41.4828L17.1448 39.7567ZM29.2734 49.1739C30.2267 49.7319 31.4518 49.4115 32.0098 48.4582C32.5678 47.505 32.2474 46.2798 31.2941 45.7218L29.2734 49.1739ZM0.64093 19.805H82.3591V15.805H0.64093V19.805ZM36.0521 12.1139H70.9826V8.11389H36.0521V12.1139ZM52.0263 33.7917L65.1653 41.4828L67.186 38.0307L54.047 30.3396L52.0263 33.7917ZM65.1653 38.0307L52.0263 45.7218L54.047 49.1739L67.186 41.4828L65.1653 38.0307ZM44.9245 25.7304L34.6697 52.0084L38.396 53.4626L48.6508 27.1846L44.9245 25.7304ZM29.2734 30.3396L16.1344 38.0307L18.1551 41.4828L31.2941 33.7917L29.2734 30.3396ZM16.1344 41.4828L29.2734 49.1739L31.2941 45.7218L18.1551 38.0307L16.1344 41.4828Z" fill="#1794C1"/>
<path d="M12.2548 12.1911C13.3594 12.1911 14.2548 11.2957 14.2548 10.1911C14.2548 9.08653 13.3594 8.1911 12.2548 8.1911C11.1503 8.1911 10.2548 9.08653 10.2548 10.1911C10.2548 11.2957 11.1503 12.1911 12.2548 12.1911Z" fill="#1794C1"/>
<path d="M18.9846 12.1911C20.0892 12.1911 20.9846 11.2957 20.9846 10.1911C20.9846 9.08653 20.0892 8.1911 18.9846 8.1911C17.88 8.1911 16.9846 9.08653 16.9846 10.1911C16.9846 11.2957 17.88 12.1911 18.9846 12.1911Z" fill="#1794C1"/>
<path d="M25.7143 12.1911C26.8189 12.1911 27.7143 11.2957 27.7143 10.1911C27.7143 9.08653 26.8189 8.1911 25.7143 8.1911C24.6097 8.1911 23.7143 9.08653 23.7143 10.1911C23.7143 11.2957 24.6097 12.1911 25.7143 12.1911Z" fill="#1794C1"/>
</g>
<defs>
<clipPath id="clip0">
<rect width="83" height="64" fill="white" transform="translate(0 0.5)"/>
</clipPath>
</defs>
</svg>
