<svg width="48" height="14" viewBox="0 0 48 14" fill="none" xmlns="http://www.w3.org/2000/svg">
<path d="M4.31988 11.714L0.863882 7.79L4.31988 3.848H8.74788L5.29188 7.79L8.74788 11.714H4.31988ZM39.2421 3.848H43.6521L47.1081 7.79L43.6521 11.714H39.2421L42.6981 7.79L39.2421 3.848Z" fill="#3FB6AF"/>
<path d="M15.8278 0.68V14H12.7498V0.68H15.8278ZM30.8744 3.848C32.1224 3.848 33.1124 4.226 33.8444 4.982C34.5884 5.738 34.9604 6.788 34.9604 8.132V14H31.9004V8.546C31.9004 7.898 31.7264 7.4 31.3784 7.052C31.0424 6.692 30.5744 6.512 29.9744 6.512C29.3744 6.512 28.9004 6.692 28.5524 7.052C28.2164 7.4 28.0484 7.898 28.0484 8.546V14H24.9884V8.546C24.9884 7.898 24.8144 7.4 24.4664 7.052C24.1304 6.692 23.6624 6.512 23.0624 6.512C22.4624 6.512 21.9884 6.692 21.6404 7.052C21.3044 7.4 21.1364 7.898 21.1364 8.546V14H18.0584V3.956H21.1364V5.216C21.4484 4.796 21.8564 4.466 22.3604 4.226C22.8644 3.974 23.4344 3.848 24.0704 3.848C24.8264 3.848 25.4984 4.01 26.0864 4.334C26.6864 4.658 27.1544 5.12 27.4904 5.72C27.8384 5.168 28.3124 4.718 28.9124 4.37C29.5124 4.022 30.1664 3.848 30.8744 3.848Z" fill="#D8D8D8"/>
</svg>
